<svg width="38" height="80" viewBox="0 0 38 80" fill="none" xmlns="http://www.w3.org/2000/svg">
<path d="M22.5837 0H15.4686C11.5252 0 7.76923 1.57063 4.89284 4.42249C1.99426 7.29622 0.397997 11.0779 0.397997 15.0667L0.345649 30.7486C0.343461 31.3961 0.866483 31.9225 1.51374 31.9246H1.51765C2.16318 31.9246 2.68745 31.4023 2.68964 30.7565L2.7198 21.7397H24.1428C25.6639 21.7621 25.6631 19.3733 24.1428 19.3958H20.1427V11.805C20.1427 11.1576 19.6181 10.633 18.9707 10.633C18.3233 10.633 17.7987 11.1576 17.7987 11.805V19.3958H2.72761L2.74199 15.0706C2.74199 8.1721 8.57009 2.34399 15.4685 2.34399H17.7985V6.20861C17.7985 6.85602 18.3231 7.38061 18.9705 7.38061C19.618 7.38061 20.1425 6.85602 20.1425 6.20861V2.34399H22.5836C29.601 2.34399 35.31 8.05318 35.31 15.0706V19.3958H29.739C28.2179 19.3734 28.2187 21.7623 29.739 21.7397H35.31V42.3572C35.31 49.0949 30.0293 54.6177 23.4008 54.9851V50.8646C23.4008 48.4952 21.473 46.5673 19.1035 46.5673C16.7341 46.5673 14.8062 48.4952 14.8062 50.8646V54.9857C8.09207 54.6227 2.74183 49.0979 2.74183 42.3572V36.5088C2.74183 35.8614 2.21725 35.3368 1.56984 35.3368C0.922427 35.3368 0.397842 35.8614 0.397842 36.5088V42.3572C0.397842 50.3902 6.79882 56.9673 14.8062 57.333V65.4143L10.8911 61.4992C9.21547 59.8235 6.4891 59.8237 4.81345 61.4993C3.13812 63.1748 3.13812 65.9012 4.81345 67.5768L15.9865 78.7499C17.5862 80.4168 20.4644 80.4168 22.0641 78.7497L26.4201 74.3936C26.8778 73.9359 26.8778 73.1938 26.4199 72.7363C25.9624 72.2787 25.2203 72.2786 24.7626 72.7364L20.4066 77.0924C19.6798 77.8501 18.371 77.8501 17.6442 77.0924L6.47112 65.9195C5.70948 65.1578 5.70948 63.9183 6.47112 63.1568C7.19807 62.399 8.50665 62.399 9.2336 63.1568L15.1325 69.0559C15.8396 69.8007 17.17 69.2364 17.1502 68.2103V50.8648C17.1502 49.7877 18.0264 48.9115 19.1035 48.9115C20.1807 48.9115 21.0569 49.7877 21.0569 50.8648V68.0541C21.037 69.0803 22.3673 69.6444 23.0744 68.8996L28.8172 63.1568C29.5787 62.395 30.8182 62.3952 31.5797 63.1567C32.3413 63.9183 32.3413 65.1578 31.5797 65.9193L28.6301 68.8688C28.1724 69.3267 28.1724 70.0687 28.6301 70.5264C29.088 70.9839 29.8298 70.9839 30.2877 70.5264L33.2373 67.5765C34.9127 65.901 34.9127 63.1747 33.2373 61.499C31.5617 59.8234 28.8353 59.8234 27.1597 61.499L23.4008 65.2578V57.3331C27.1447 57.1619 30.6325 55.625 33.2867 52.9613C36.1029 50.1347 37.654 46.3687 37.654 42.3572V15.0706C37.6542 6.7607 30.8937 0 22.5837 0V0Z" fill="#FFAF00"/>
</svg>
