<svg width="30" height="30" viewBox="0 0 30 30" fill="none" xmlns="http://www.w3.org/2000/svg">
<path d="M0 2.5C0 1.11719 0.957589 0 2.14286 0H27.8571C29.0424 0 30 1.11719 30 2.5C30 3.88281 29.0424 5 27.8571 5H2.14286C0.957589 5 0 3.88281 0 2.5ZM0 15C0 13.6172 0.957589 12.5 2.14286 12.5H27.8571C29.0424 12.5 30 13.6172 30 15C30 16.3828 29.0424 17.5 27.8571 17.5H2.14286C0.957589 17.5 0 16.3828 0 15ZM30 27.5C30 28.8828 29.0424 30 27.8571 30H2.14286C0.957589 30 0 28.8828 0 27.5C0 26.1172 0.957589 25 2.14286 25H27.8571C29.0424 25 30 26.1172 30 27.5Z" fill="white"/>
</svg>
