<svg width="30" height="10" viewBox="0 0 30 10" fill="none" xmlns="http://www.w3.org/2000/svg">
<path d="M7.77778 5C7.77778 7.75893 6.03472 10 3.88889 10C1.74306 10 0 7.75893 0 5C0 2.24107 1.74306 0 3.88889 0C6.03472 0 7.77778 2.24107 7.77778 5ZM18.8889 5C18.8889 7.75893 17.1458 10 15 10C12.8542 10 11.1111 7.75893 11.1111 5C11.1111 2.24107 12.8542 0 15 0C17.1458 0 18.8889 2.24107 18.8889 5ZM26.1111 10C23.9653 10 22.2222 7.75893 22.2222 5C22.2222 2.24107 23.9653 0 26.1111 0C28.2569 0 30 2.24107 30 5C30 7.75893 28.2569 10 26.1111 10Z" fill="white"/>
</svg>
