<svg width="40" height="41" viewBox="0 0 40 41" fill="none" xmlns="http://www.w3.org/2000/svg">
<rect y="0.622314" width="40" height="40.0771" rx="8" fill="#F9AA01"/>
<path d="M20.5028 13.7378C16.9557 13.7378 14.0945 16.6051 14.0945 20.1598C14.0945 23.7146 16.9557 26.5819 20.5028 26.5819C24.0499 26.5819 26.911 23.7146 26.911 20.1598C26.911 16.6051 24.0499 13.7378 20.5028 13.7378ZM20.5028 24.335C18.2105 24.335 16.3366 22.4626 16.3366 20.1598C16.3366 17.8571 18.205 15.9847 20.5028 15.9847C22.8006 15.9847 24.669 17.8571 24.669 20.1598C24.669 22.4626 22.795 24.335 20.5028 24.335ZM28.6679 13.4751C28.6679 14.3079 27.9986 14.973 27.1732 14.973C26.3422 14.973 25.6785 14.3023 25.6785 13.4751C25.6785 12.6479 26.3477 11.9772 27.1732 11.9772C27.9986 11.9772 28.6679 12.6479 28.6679 13.4751ZM32.9122 14.9954C32.8173 12.9888 32.36 11.2115 30.8932 9.74708C29.432 8.2827 27.6584 7.82438 25.6562 7.72377C23.5926 7.6064 17.4074 7.6064 15.3438 7.72377C13.3472 7.81879 11.5736 8.27711 10.1068 9.74149C8.63999 11.2059 8.18823 12.9832 8.08784 14.9898C7.97072 17.0578 7.97072 23.2563 8.08784 25.3243C8.18265 27.3308 8.63999 29.1082 10.1068 30.5726C11.5736 32.037 13.3416 32.4953 15.3438 32.5959C17.4074 32.7133 23.5926 32.7133 25.6562 32.5959C27.6584 32.5009 29.432 32.0425 30.8932 30.5726C32.3544 29.1082 32.8118 27.3308 32.9122 25.3243C33.0293 23.2563 33.0293 17.0634 32.9122 14.9954ZM30.2462 27.5432C29.8112 28.6387 28.969 29.4827 27.8703 29.9242C26.225 30.5782 22.321 30.4273 20.5028 30.4273C18.6846 30.4273 14.775 30.5726 13.1352 29.9242C12.0421 29.4883 11.1999 28.6443 10.7593 27.5432C10.1068 25.8944 10.2574 21.9819 10.2574 20.1598C10.2574 18.3377 10.1124 14.4197 10.7593 12.7764C11.1944 11.681 12.0365 10.837 13.1352 10.3954C14.7805 9.74149 18.6846 9.8924 20.5028 9.8924C22.321 9.8924 26.2306 9.74708 27.8703 10.3954C28.9635 10.8314 29.8056 11.6754 30.2462 12.7764C30.8988 14.4253 30.7482 18.3377 30.7482 20.1598C30.7482 21.9819 30.8988 25.9 30.2462 27.5432Z" fill="#1B1426"/>
</svg>
