<svg width="40" height="41" viewBox="0 0 40 41" fill="none" xmlns="http://www.w3.org/2000/svg">
<rect y="0.622314" width="40" height="40.0771" rx="8" fill="#F9AA01"/>
<path d="M31.2143 7.63574H9.78013C8.79799 7.63574 8 8.44645 8 9.44167V30.878C8 31.8732 8.79799 32.6839 9.78013 32.6839H31.2143C32.1964 32.6839 33 31.8732 33 30.878V9.44167C33 8.44645 32.1964 7.63574 31.2143 7.63574ZM15.5558 29.1056H11.8504V17.1518H15.5614V29.1056H15.5558ZM13.7031 15.5192C12.5145 15.5192 11.5547 14.5519 11.5547 13.3666C11.5547 12.1813 12.5145 11.2141 13.7031 11.2141C14.8862 11.2141 15.8516 12.1813 15.8516 13.3666C15.8516 14.5575 14.8917 15.5192 13.7031 15.5192ZM29.4453 29.1056H25.74V23.2908C25.74 21.9043 25.7121 20.1207 23.8147 20.1207C21.8839 20.1207 21.5882 21.6303 21.5882 23.1902V29.1056H17.8828V17.1518H21.4375V18.7844H21.4877C21.9844 17.8451 23.1953 16.8555 24.9978 16.8555C28.7478 16.8555 29.4453 19.3323 29.4453 22.5528V29.1056Z" fill="#1B1426"/>
</svg>
