<svg width="20" height="16" viewBox="0 0 20 16" fill="none" xmlns="http://www.w3.org/2000/svg">
<path d="M13.125 10.8575C16.9219 10.8575 20 8.42693 20 5.42877C20 2.43061 16.9219 0 13.125 0C9.32812 0 6.25 2.43061 6.25 5.42877C6.25 6.00558 6.36328 6.56388 6.57422 7.08516L0.273438 12.0605C0.0976562 12.1993 0 12.3875 0 12.5849V15.0525C0 15.4627 0.417969 15.7928 0.9375 15.7928H4.0625C4.58203 15.7928 5 15.4627 5 15.0525V13.8187H6.5625C7.08203 13.8187 7.5 13.4886 7.5 13.0784V11.8446H9.0625C9.3125 11.8446 9.55078 11.7675 9.72656 11.6287L11.0273 10.6015C11.6875 10.7681 12.3945 10.8575 13.125 10.8575ZM14.6875 5.42877C13.8242 5.42877 13.125 4.87664 13.125 4.19496C13.125 3.51328 13.8242 2.96115 14.6875 2.96115C15.5508 2.96115 16.25 3.51328 16.25 4.19496C16.25 4.87664 15.5508 5.42877 14.6875 5.42877Z" fill="white"/>
</svg>
