<svg width="1080" height="331" viewBox="0 0 1080 331" fill="none" xmlns="http://www.w3.org/2000/svg">
<rect width="1080" height="331" fill="white"/>
<path d="M558 197.409C558 196.262 558.488 194.435 559.463 193.461C560.373 192.487 561.998 192 564.338 192L909.662 192.003C912.002 192.003 913.66 192.49 914.635 193.464C915.545 194.438 916 196.264 916 197.411C916 198.738 915.545 200.565 914.635 201.539C913.66 202.513 912.002 203 909.662 203L564.338 202.997C561.998 202.997 560.373 202.51 559.463 201.536C558.488 200.562 558 198.736 558 197.409Z" fill="white"/>
<path d="M558 197.409C558 196.262 558.488 194.435 559.463 193.461C560.373 192.487 561.998 192 564.338 192L909.662 192.003C912.002 192.003 913.66 192.49 914.635 193.464C915.545 194.438 916 196.264 916 197.411C916 198.738 915.545 200.565 914.635 201.539C913.66 202.513 912.002 203 909.662 203L564.338 202.997C561.998 202.997 560.373 202.51 559.463 201.536C558.488 200.562 558 198.736 558 197.409Z" fill="#F9003D"/>
<path d="M919.129 230.637C918.29 229.807 917.048 228.39 916.525 227.494C915.989 226.611 915.948 225.94 916.402 225.481L983.409 157.75C983.863 157.291 984.541 157.318 985.443 157.832C986.332 158.358 987.756 159.591 988.595 160.421C989.566 161.381 990.814 162.792 991.35 163.675C991.873 164.571 991.907 165.249 991.453 165.708L924.446 233.438C923.992 233.897 923.321 233.863 922.432 233.337C921.53 232.824 920.099 231.598 919.129 230.637Z" fill="#F9003D"/>
<path d="M919.129 230.637C918.29 229.807 917.048 228.39 916.525 227.494C915.989 226.611 915.948 225.94 916.402 225.481L983.409 157.75C983.863 157.291 984.541 157.318 985.443 157.832C986.332 158.358 987.756 159.591 988.595 160.421C989.566 161.381 990.814 162.792 991.35 163.675C991.873 164.571 991.907 165.249 991.453 165.708L924.446 233.438C923.992 233.897 923.321 233.863 922.432 233.337C921.53 232.824 920.099 231.598 919.129 230.637Z" fill="#F9003D"/>
<path d="M988.637 168.554C987.807 169.393 986.39 170.635 985.494 171.158C984.611 171.694 983.94 171.735 983.481 171.281L915.75 104.274C915.291 103.82 915.318 103.142 915.832 102.24C916.358 101.351 917.591 99.9269 918.421 99.0879C919.381 98.117 920.792 96.8694 921.675 96.3335C922.571 95.8103 923.249 95.7756 923.708 96.2297L991.438 163.237C991.897 163.691 991.863 164.362 991.337 165.251C990.824 166.153 989.598 167.584 988.637 168.554Z" fill="#F9003D"/>
<path d="M988.637 168.554C987.807 169.393 986.39 170.635 985.494 171.158C984.611 171.694 983.94 171.735 983.481 171.281L915.75 104.274C915.291 103.82 915.318 103.142 915.832 102.24C916.358 101.351 917.591 99.9269 918.421 99.0879C919.381 98.117 920.792 96.8694 921.675 96.3335C922.571 95.8103 923.249 95.7756 923.708 96.2297L991.438 163.237C991.897 163.691 991.863 164.362 991.337 165.251C990.824 166.153 989.598 167.584 988.637 168.554Z" fill="#F9003D"/>
<path d="M160.555 230.637C161.393 229.807 162.635 228.39 163.158 227.494C163.694 226.611 163.735 225.94 163.281 225.481L96.2737 157.75C95.8197 157.291 95.1418 157.318 94.2401 157.832C93.3511 158.358 91.9269 159.591 91.088 160.421C90.1171 161.381 88.8695 162.792 88.3336 163.675C87.8103 164.571 87.7757 165.249 88.2297 165.708L155.237 233.438C155.691 233.897 156.362 233.863 157.251 233.337C158.153 232.824 159.584 231.598 160.555 230.637Z" fill="#F9003D"/>
<path d="M160.555 230.637C161.393 229.807 162.635 228.39 163.158 227.494C163.694 226.611 163.735 225.94 163.281 225.481L96.2737 157.75C95.8197 157.291 95.1418 157.318 94.2401 157.832C93.3511 158.358 91.9269 159.591 91.088 160.421C90.1171 161.381 88.8695 162.792 88.3336 163.675C87.8103 164.571 87.7757 165.249 88.2297 165.708L155.237 233.438C155.691 233.897 156.362 233.863 157.251 233.337C158.153 232.824 159.584 231.598 160.555 230.637Z" fill="#F9003D"/>
<path d="M91.0459 168.554C91.8759 169.393 93.2931 170.635 94.1891 171.158C95.0724 171.694 95.7436 171.735 96.2025 171.281L163.933 104.274C164.392 103.82 164.365 103.142 163.851 102.24C163.325 101.351 162.092 99.9269 161.262 99.0879C160.302 98.117 158.891 96.8694 158.008 96.3335C157.112 95.8103 156.434 95.7756 155.975 96.2297L88.2449 163.237C87.7859 163.691 87.8196 164.362 88.3459 165.251C88.8595 166.153 90.0855 167.584 91.0459 168.554Z" fill="#F9003D"/>
<path d="M91.0459 168.554C91.8759 169.393 93.2931 170.635 94.1891 171.158C95.0724 171.694 95.7436 171.735 96.2025 171.281L163.933 104.274C164.392 103.82 164.365 103.142 163.851 102.24C163.325 101.351 162.092 99.9269 161.262 99.0879C160.302 98.117 158.891 96.8694 158.008 96.3335C157.112 95.8103 156.434 95.7756 155.975 96.2297L88.2449 163.237C87.7859 163.691 87.8196 164.362 88.3459 165.251C88.8595 166.153 90.0855 167.584 91.0459 168.554Z" fill="#F9003D"/>
<path d="M178 113.534H194.111V201.044H220.62V215.628H178V113.534Z" fill="#F9003D"/>
<path d="M241.367 113.534H263.189L279.886 215.628H263.775L260.846 195.355V195.647H242.538L239.609 215.628H224.67L241.367 113.534ZM258.942 181.791L251.765 131.328H251.472L244.442 181.791H258.942Z" fill="#F9003D"/>
<path d="M287.702 113.534H307.913L323.584 174.645H323.877V113.534H338.23V215.628H321.68L302.348 141.1H302.055V215.628H287.702V113.534Z" fill="#F9003D"/>
<path d="M350.205 113.534H374.81C382.816 113.534 388.821 115.673 392.824 119.952C396.828 124.23 398.829 130.501 398.829 138.766V190.397C398.829 198.661 396.828 204.933 392.824 209.211C388.821 213.489 382.816 215.628 374.81 215.628H350.205V113.534ZM374.517 201.044C377.153 201.044 379.155 200.266 380.522 198.71C381.986 197.154 382.719 194.626 382.719 191.126V138.037C382.719 134.536 381.986 132.008 380.522 130.453C379.155 128.897 377.153 128.119 374.517 128.119H366.315V201.044H374.517Z" fill="#F9003D"/>
<path d="M409.704 113.534H425.815V215.628H409.704V113.534Z" fill="#F9003D"/>
<path d="M437.88 113.534H458.092L473.763 174.645H474.056V113.534H488.409V215.628H471.859L452.526 141.1H452.233V215.628H437.88V113.534Z" fill="#F9003D"/>
<path d="M523.231 217.087C515.42 217.087 509.464 214.899 505.363 210.524C501.262 206.051 499.211 199.682 499.211 191.417V137.745C499.211 129.48 501.262 123.16 505.363 118.785C509.464 114.312 515.42 112.076 523.231 112.076C531.042 112.076 536.998 114.312 541.099 118.785C545.2 123.16 547.25 129.48 547.25 137.745V146.496H532.018V136.724C532.018 130.015 529.236 126.661 523.67 126.661C518.105 126.661 515.322 130.015 515.322 136.724V192.584C515.322 199.196 518.105 202.502 523.67 202.502C529.236 202.502 532.018 199.196 532.018 192.584V172.603H523.963V158.018H547.25V191.417C547.25 199.682 545.2 206.051 541.099 210.524C536.998 214.899 531.042 217.087 523.231 217.087Z" fill="#F9003D"/>
<path d="M612.799 112C619.289 112 625.098 113.537 630.226 116.612C635.355 119.635 639.384 124.012 642.315 129.745C645.246 135.425 646.711 142.122 646.711 149.835C646.711 157.548 645.246 164.27 642.315 170.003C639.384 175.683 635.355 180.061 630.226 183.136C625.098 186.158 619.289 187.67 612.799 187.67C602.961 187.67 594.666 183.37 587.915 174.771V205.649H601.417C603.196 205.649 604.452 206.04 605.185 206.822C605.97 207.655 606.363 209.036 606.363 210.965C606.363 212.893 605.97 214.248 605.185 215.03C604.452 215.863 603.196 216.28 601.417 216.28H568.134C566.354 216.28 565.072 215.863 564.287 215.03C563.555 214.248 563.188 212.893 563.188 210.965C563.188 209.036 563.555 207.655 564.287 206.822C565.072 206.04 566.354 205.649 568.134 205.649H576.141V124.351H569.704C567.924 124.351 566.642 123.96 565.857 123.178C565.125 122.345 564.758 120.964 564.758 119.035C564.758 117.107 565.125 115.752 565.857 114.971C566.642 114.137 567.924 113.72 569.704 113.72H582.185C583.964 113.72 585.22 114.137 585.953 114.971C586.738 115.752 587.13 117.107 587.13 119.035V125.289C590.427 121.016 594.248 117.733 598.591 115.44C602.935 113.147 607.671 112 612.799 112ZM612.014 123.569C607.357 123.569 603.196 124.612 599.533 126.696C595.922 128.781 593.07 131.803 590.977 135.764C588.936 139.725 587.915 144.415 587.915 149.835C587.915 155.255 588.936 159.945 590.977 163.906C593.07 167.866 595.922 170.889 599.533 172.973C603.196 175.058 607.357 176.1 612.014 176.1C616.672 176.1 620.676 175.006 624.025 172.817C627.374 170.576 629.912 167.475 631.639 163.515C633.418 159.554 634.308 154.994 634.308 149.835C634.308 144.676 633.418 140.116 631.639 136.155C629.912 132.194 627.374 129.119 624.025 126.931C620.676 124.69 616.672 123.569 612.014 123.569Z" fill="black"/>
<path d="M697.154 112C706.993 112 714.371 114.189 719.291 118.566C724.21 122.944 726.67 129.432 726.67 138.031V169.143C726.67 173.26 728.397 175.319 731.85 175.319H734.598C736.377 175.319 737.633 175.735 738.366 176.569C739.151 177.351 739.543 178.706 739.543 180.634C739.543 182.562 739.151 183.943 738.366 184.777C737.633 185.559 736.377 185.95 734.598 185.95H729.574C726.172 185.95 723.242 185.116 720.782 183.448C718.375 181.729 716.805 179.227 716.072 175.944C711.781 179.696 707.123 182.589 702.099 184.621C697.128 186.653 691.842 187.67 686.243 187.67C680.957 187.67 676.273 186.784 672.191 185.012C668.162 183.188 664.996 180.556 662.693 177.117C660.391 173.677 659.239 169.586 659.239 164.844C659.239 156.61 662.196 150.538 668.11 146.63C674.023 142.669 681.664 140.689 691.031 140.689C699.352 140.689 707.307 142.018 714.895 144.676V138.031C714.895 132.976 713.456 129.276 710.577 126.931C707.751 124.533 703.172 123.335 696.84 123.335C692.915 123.335 688.833 123.882 684.594 124.976C680.355 126.071 676.326 127.582 672.506 129.51C671.616 129.979 670.805 130.214 670.072 130.214C668.345 130.214 666.906 128.963 665.755 126.462C665.179 125.211 664.891 124.169 664.891 123.335C664.891 121.511 665.859 120.104 667.796 119.114C672.192 116.821 676.901 115.075 681.925 113.876C687.002 112.625 692.078 112 697.154 112ZM691.11 151.711C685.091 151.711 680.329 152.753 676.823 154.838C673.369 156.87 671.642 160.127 671.642 164.609C671.642 168.413 672.95 171.384 675.567 173.521C678.236 175.605 681.951 176.647 686.714 176.647C697.128 176.647 706.522 172.348 714.895 163.749V155.229C711.336 154.082 707.516 153.222 703.434 152.649C699.352 152.024 695.244 151.711 691.11 151.711Z" fill="black"/>
<path d="M780.881 112C786.009 112 790.745 113.147 795.089 115.44C799.433 117.733 803.253 121.016 806.55 125.289V119.035C806.55 117.107 806.916 115.752 807.649 114.971C808.434 114.137 809.716 113.72 811.495 113.72H823.976C825.756 113.72 827.012 114.137 827.744 114.971C828.529 115.752 828.922 117.107 828.922 119.035C828.922 120.964 828.529 122.345 827.744 123.178C827.012 123.96 825.756 124.351 823.976 124.351H817.54V188.295C817.54 194.497 816.205 199.812 813.536 204.242C810.92 208.724 807.099 212.137 802.075 214.482C797.051 216.827 791.007 218 783.942 218C778.918 218 773.842 217.557 768.713 216.671C763.585 215.837 758.796 214.613 754.348 212.997C752.307 212.267 751.287 210.886 751.287 208.854C751.287 208.02 751.496 206.978 751.915 205.727C752.857 202.861 754.348 201.428 756.389 201.428C756.965 201.428 757.54 201.532 758.116 201.74C762.198 203.2 766.489 204.346 770.99 205.18C775.49 206.014 779.808 206.431 783.942 206.431C791.164 206.431 796.607 204.711 800.27 201.271C803.933 197.884 805.765 193.22 805.765 187.279V171.566C799.276 179.696 790.981 183.761 780.881 183.761C774.391 183.761 768.583 182.328 763.454 179.462C758.325 176.543 754.296 172.374 751.365 166.954C748.435 161.534 746.969 155.177 746.969 147.881C746.969 140.585 748.435 134.227 751.365 128.807C754.296 123.387 758.325 119.244 763.454 116.378C768.583 113.459 774.391 112 780.881 112ZM781.666 123.569C777.008 123.569 773.005 124.612 769.655 126.696C766.306 128.729 763.742 131.595 761.963 135.295C760.236 138.943 759.372 143.138 759.372 147.881C759.372 152.623 760.236 156.844 761.963 160.544C763.742 164.192 766.306 167.059 769.655 169.143C773.005 171.176 777.008 172.192 781.666 172.192C786.323 172.192 790.458 171.228 794.068 169.299C797.732 167.371 800.584 164.583 802.625 160.935C804.718 157.235 805.765 152.883 805.765 147.881C805.765 142.878 804.718 138.552 802.625 134.904C800.584 131.204 797.732 128.39 794.068 126.462C790.458 124.533 786.323 123.569 781.666 123.569Z" fill="black"/>
<path d="M874.263 112C881.851 112 888.314 113.537 893.652 116.612C899.042 119.635 903.176 123.856 906.055 129.276C908.933 134.644 910.581 140.845 911 147.881C911 149.652 910.607 150.903 909.823 151.633C909.09 152.362 907.834 152.727 906.055 152.727H849.222C849.588 160.492 851.891 166.381 856.13 170.394C860.421 174.354 866.465 176.335 874.263 176.335C879.077 176.335 883.84 175.735 888.549 174.537C893.259 173.286 897.394 171.645 900.952 169.612C901.842 169.143 902.653 168.909 903.386 168.909C905.217 168.909 906.709 170.29 907.86 173.052C908.331 174.146 908.567 175.136 908.567 176.022C908.567 178.107 907.415 179.722 905.113 180.869C901.083 182.901 896.321 184.543 890.826 185.794C885.331 187.044 879.81 187.67 874.263 187.67C866.36 187.67 859.61 186.158 854.01 183.136C848.41 180.113 844.145 175.762 841.215 170.081C838.284 164.401 836.819 157.652 836.819 149.835C836.819 142.382 838.415 135.79 841.607 130.058C844.8 124.325 849.222 119.895 854.873 116.768C860.525 113.589 866.988 112 874.263 112ZM874.263 123.335C867.826 123.335 862.488 124.976 858.249 128.26C854.062 131.491 851.315 135.999 850.007 141.783H897.969C896.87 135.79 894.332 131.23 890.355 128.103C886.43 124.924 881.066 123.335 874.263 123.335Z" fill="black"/>
</svg>
