<svg width="20" height="20" viewBox="0 0 20 20" fill="none" xmlns="http://www.w3.org/2000/svg">
<path d="M12.8571 6.75H13.3571V6.25V4.375C13.3571 2.65932 11.7872 1.375 10 1.375C8.21277 1.375 6.64286 2.65932 6.64286 4.375V6.25V6.75H7.14286H12.8571ZM5 6.75H5.5V6.25V4.375C5.5 2.2938 7.44795 0.5 10 0.5C12.5521 0.5 14.5 2.2938 14.5 4.375V6.25V6.75H15H17.8571C18.8288 6.75 19.5 7.42661 19.5 8.125V16.25C19.5 17.9835 17.869 19.5 15.7143 19.5H4.28571C2.13098 19.5 0.5 17.9835 0.5 16.25V8.125C0.5 7.42661 1.17116 6.75 2.14286 6.75H5ZM4.5 9.0625C4.5 9.9188 5.26634 10.5 6.07143 10.5C6.87652 10.5 7.64286 9.9188 7.64286 9.0625C7.64286 8.2062 6.87652 7.625 6.07143 7.625C5.26634 7.625 4.5 8.2062 4.5 9.0625ZM13.9286 10.5C14.7337 10.5 15.5 9.9188 15.5 9.0625C15.5 8.2062 14.7337 7.625 13.9286 7.625C13.1235 7.625 12.3571 8.2062 12.3571 9.0625C12.3571 9.9188 13.1235 10.5 13.9286 10.5Z" fill="#1B1426" stroke="#F9AA01"/>
</svg>
