<svg width="25" height="26" viewBox="0 0 25 26" fill="none" xmlns="http://www.w3.org/2000/svg">
<path d="M16.0714 9.01936H16.5714V8.51936V6.20862C16.5714 4.16635 14.6741 2.62763 12.5 2.62763C10.3259 2.62763 8.42857 4.16635 8.42857 6.20862V8.51936V9.01936H8.92857H16.0714ZM6.25 9.01936H6.75V8.51936V6.20862C6.75 3.57164 9.25003 1.31689 12.5 1.31689C15.75 1.31689 18.25 3.57164 18.25 6.20862V8.51936V9.01936H18.75H22.3214C23.596 9.01936 24.5 9.89729 24.5 10.8301V20.8433C24.5 23.0518 22.3962 24.9648 19.6429 24.9648H5.35714C2.60382 24.9648 0.5 23.0518 0.5 20.8433V10.8301C0.5 9.89729 1.40405 9.01936 2.67857 9.01936H6.25ZM5.75 11.9855C5.75 12.9686 6.64283 13.6408 7.58929 13.6408C8.53574 13.6408 9.42857 12.9686 9.42857 11.9855C9.42857 11.0023 8.53574 10.3301 7.58929 10.3301C6.64283 10.3301 5.75 11.0023 5.75 11.9855ZM17.4107 13.6408C18.3572 13.6408 19.25 12.9686 19.25 11.9855C19.25 11.0023 18.3572 10.3301 17.4107 10.3301C16.4643 10.3301 15.5714 11.0023 15.5714 11.9855C15.5714 12.9686 16.4643 13.6408 17.4107 13.6408Z" fill="#1B1426" stroke="#F9AA01"/>
</svg>
