<svg width="25" height="22" viewBox="0 0 25 22" fill="none" xmlns="http://www.w3.org/2000/svg">
<path d="M2.34375 0.788757C1.0498 0.788757 0 1.94798 0 3.37679C0 4.19094 0.34668 4.95656 0.9375 5.44721L11.5625 14.2465C12.1191 14.7048 12.8809 14.7048 13.4375 14.2465L24.0625 5.44721C24.6533 4.95656 25 4.19094 25 3.37679C25 1.94798 23.9502 0.788757 22.6562 0.788757H2.34375ZM0 6.82749V18.0423C0 19.9456 1.40137 21.493 3.125 21.493H21.875C23.5986 21.493 25 19.9456 25 18.0423V6.82749L14.375 15.6268C13.2617 16.5488 11.7383 16.5488 10.625 15.6268L0 6.82749Z" fill="white"/>
</svg>
