<svg width="40" height="41" viewBox="0 0 40 41" fill="none" xmlns="http://www.w3.org/2000/svg">
<rect width="40" height="40.0771" rx="8" fill="#F9AA01"/>
<path d="M20.5028 13.1157C16.9557 13.1157 14.0945 15.983 14.0945 19.5378C14.0945 23.0925 16.9557 25.9598 20.5028 25.9598C24.0499 25.9598 26.911 23.0925 26.911 19.5378C26.911 15.983 24.0499 13.1157 20.5028 13.1157ZM20.5028 23.7129C18.2105 23.7129 16.3366 21.8405 16.3366 19.5378C16.3366 17.235 18.205 15.3626 20.5028 15.3626C22.8006 15.3626 24.669 17.235 24.669 19.5378C24.669 21.8405 22.795 23.7129 20.5028 23.7129ZM28.6679 12.853C28.6679 13.6858 27.9986 14.3509 27.1732 14.3509C26.3422 14.3509 25.6785 13.6802 25.6785 12.853C25.6785 12.0258 26.3477 11.3551 27.1732 11.3551C27.9986 11.3551 28.6679 12.0258 28.6679 12.853ZM32.9122 14.3733C32.8173 12.3668 32.36 10.5894 30.8932 9.12501C29.432 7.66063 27.6584 7.20231 25.6562 7.1017C23.5926 6.98433 17.4074 6.98433 15.3438 7.1017C13.3472 7.19672 11.5736 7.65504 10.1068 9.11942C8.63999 10.5838 8.18823 12.3612 8.08784 14.3677C7.97072 16.4357 7.97072 22.6342 8.08784 24.7022C8.18265 26.7087 8.63999 28.4861 10.1068 29.9505C11.5736 31.4149 13.3416 31.8732 15.3438 31.9738C17.4074 32.0912 23.5926 32.0912 25.6562 31.9738C27.6584 31.8788 29.432 31.4205 30.8932 29.9505C32.3544 28.4861 32.8118 26.7087 32.9122 24.7022C33.0293 22.6342 33.0293 16.4413 32.9122 14.3733ZM30.2462 26.9211C29.8112 28.0166 28.969 28.8606 27.8703 29.3022C26.225 29.9561 22.321 29.8052 20.5028 29.8052C18.6846 29.8052 14.775 29.9505 13.1352 29.3022C12.0421 28.8662 11.1999 28.0222 10.7593 26.9211C10.1068 25.2723 10.2574 21.3598 10.2574 19.5378C10.2574 17.7157 10.1124 13.7976 10.7593 12.1544C11.1944 11.0589 12.0365 10.2149 13.1352 9.77336C14.7805 9.11942 18.6846 9.27033 20.5028 9.27033C22.321 9.27033 26.2306 9.12501 27.8703 9.77336C28.9635 10.2093 29.8056 11.0533 30.2462 12.1544C30.8988 13.8032 30.7482 17.7157 30.7482 19.5378C30.7482 21.3598 30.8988 25.2779 30.2462 26.9211Z" fill="#1B1426"/>
</svg>
