<svg width="40" height="41" viewBox="0 0 40 41" fill="none" xmlns="http://www.w3.org/2000/svg">
<rect width="40" height="40.0771" rx="8" fill="#F9AA01"/>
<path d="M31.2143 7.01367H9.78013C8.79799 7.01367 8 7.82438 8 8.8196V30.2559C8 31.2511 8.79799 32.0618 9.78013 32.0618H31.2143C32.1964 32.0618 33 31.2511 33 30.2559V8.8196C33 7.82438 32.1964 7.01367 31.2143 7.01367ZM15.5558 28.4835H11.8504V16.5297H15.5614V28.4835H15.5558ZM13.7031 14.8971C12.5145 14.8971 11.5547 13.9299 11.5547 12.7446C11.5547 11.5592 12.5145 10.592 13.7031 10.592C14.8862 10.592 15.8516 11.5592 15.8516 12.7446C15.8516 13.9355 14.8917 14.8971 13.7031 14.8971ZM29.4453 28.4835H25.74V22.6688C25.74 21.2822 25.7121 19.4986 23.8147 19.4986C21.8839 19.4986 21.5882 21.0082 21.5882 22.5681V28.4835H17.8828V16.5297H21.4375V18.1623H21.4877C21.9844 17.223 23.1953 16.2334 24.9978 16.2334C28.7478 16.2334 29.4453 18.7103 29.4453 21.9308V28.4835Z" fill="#1B1426"/>
</svg>
