<svg width="20" height="20" viewBox="0 0 20 20" fill="none" xmlns="http://www.w3.org/2000/svg">
<path d="M14.2843 12.6213L14.0321 12.9669L14.3346 13.2695L19.2801 18.218L19.2803 18.2182C19.5732 18.5111 19.5732 18.9873 19.2803 19.2803C18.9872 19.5732 18.5109 19.5732 18.2178 19.2804C18.2178 19.2804 18.2178 19.2804 18.2178 19.2803C18.2177 19.2803 18.2177 19.2803 18.2177 19.2803L13.2723 14.3319L12.9691 14.0286L12.6232 14.282C11.3626 15.2052 9.80918 15.7476 8.1254 15.7476C3.91295 15.7476 0.5 12.3352 0.5 8.12381C0.5 3.91242 3.91295 0.5 8.1254 0.5C12.3378 0.5 15.7508 3.91242 15.7508 8.12381C15.7508 9.80649 15.2048 11.36 14.2843 12.6213ZM8.1254 14.248C11.5071 14.248 14.2507 11.5051 14.2507 8.12381C14.2507 4.74256 11.5071 1.99963 8.1254 1.99963C4.74373 1.99963 2.00012 4.74256 2.00012 8.12381C2.00012 11.5051 4.74373 14.248 8.1254 14.248Z" fill="#1B1426" stroke="#F9AA01"/>
</svg>
