<svg width="25" height="26" viewBox="0 0 25 26" fill="none" xmlns="http://www.w3.org/2000/svg">
<path d="M12.5028 6.82143C8.95566 6.82143 6.09453 9.64289 6.09453 13.1408C6.09453 16.6388 8.95566 19.4602 12.5028 19.4602C16.0499 19.4602 18.911 16.6388 18.911 13.1408C18.911 9.64289 16.0499 6.82143 12.5028 6.82143ZM12.5028 17.2493C10.2105 17.2493 8.33659 15.4068 8.33659 13.1408C8.33659 10.8749 10.205 9.0324 12.5028 9.0324C14.8006 9.0324 16.669 10.8749 16.669 13.1408C16.669 15.4068 14.795 17.2493 12.5028 17.2493ZM20.6679 6.56294C20.6679 7.38242 19.9986 8.03691 19.1732 8.03691C18.3422 8.03691 17.6785 7.37692 17.6785 6.56294C17.6785 5.74895 18.3477 5.08896 19.1732 5.08896C19.9986 5.08896 20.6679 5.74895 20.6679 6.56294ZM24.9122 8.05891C24.8173 6.08444 24.36 4.33547 22.8932 2.89449C21.432 1.45351 19.6584 1.00252 17.6562 0.903518C15.5926 0.78802 9.40742 0.78802 7.34384 0.903518C5.34718 0.997017 3.57362 1.44801 2.1068 2.88899C0.639989 4.32997 0.188232 6.07894 0.0878416 8.05341C-0.0292805 10.0884 -0.0292805 16.1878 0.0878416 18.2228C0.182655 20.1972 0.639989 21.9462 2.1068 23.3872C3.57362 24.8282 5.34161 25.2792 7.34384 25.3782C9.40742 25.4937 15.5926 25.4937 17.6562 25.3782C19.6584 25.2847 21.432 24.8337 22.8932 23.3872C24.3544 21.9462 24.8118 20.1972 24.9122 18.2228C25.0293 16.1878 25.0293 10.0939 24.9122 8.05891ZM22.2462 20.4062C21.8112 21.4842 20.969 22.3147 19.8703 22.7492C18.225 23.3927 14.321 23.2442 12.5028 23.2442C10.6846 23.2442 6.77496 23.3872 5.13525 22.7492C4.04211 22.3202 3.19994 21.4897 2.75934 20.4062C2.1068 18.7838 2.25739 14.9338 2.25739 13.1408C2.25739 11.3479 2.11238 7.49242 2.75934 5.87545C3.19437 4.79746 4.03653 3.96697 5.13525 3.53248C6.78054 2.88899 10.6846 3.03749 12.5028 3.03749C14.321 3.03749 18.2306 2.89449 19.8703 3.53248C20.9635 3.96147 21.8056 4.79196 22.2462 5.87545C22.8988 7.49792 22.7482 11.3479 22.7482 13.1408C22.7482 14.9338 22.8988 18.7893 22.2462 20.4062Z" fill="white"/>
</svg>
