<svg width="25" height="26" viewBox="0 0 25 26" fill="none" xmlns="http://www.w3.org/2000/svg">
<path d="M23.2143 0.816895H1.78013C0.797991 0.816895 0 1.61465 0 2.59396V23.6877C0 24.667 0.797991 25.4648 1.78013 25.4648H23.2143C24.1964 25.4648 25 24.667 25 23.6877V2.59396C25 1.61465 24.1964 0.816895 23.2143 0.816895ZM7.5558 21.9437H3.85045V10.1809H7.56138V21.9437H7.5558ZM5.70312 8.57438C4.51451 8.57438 3.55469 7.62257 3.55469 6.4562C3.55469 5.28983 4.51451 4.33802 5.70312 4.33802C6.88616 4.33802 7.85156 5.28983 7.85156 6.4562C7.85156 7.62807 6.89174 8.57438 5.70312 8.57438ZM21.4453 21.9437H17.74V16.2218C17.74 14.8574 17.7121 13.1023 15.8147 13.1023C13.8839 13.1023 13.5882 14.5878 13.5882 16.1228V21.9437H9.88281V10.1809H13.4375V11.7874H13.4877C13.9844 10.8631 15.1953 9.8893 16.9978 9.8893C20.7478 9.8893 21.4453 12.3266 21.4453 15.4956V21.9437Z" fill="white"/>
</svg>
