<svg width="25" height="26" viewBox="0 0 25 26" fill="none" xmlns="http://www.w3.org/2000/svg">
<path d="M17.9584 16.4371L17.7003 16.7858L18.0091 17.0905L24.1911 23.189L24.1912 23.1892C24.6029 23.595 24.6029 24.2516 24.1912 24.6574C23.7755 25.0672 23.0971 25.0672 22.6813 24.6576C22.6813 24.6575 22.6812 24.6575 22.6812 24.6574L16.4994 18.5591L16.1984 18.2621L15.8555 18.5097C14.259 19.6626 12.2905 20.3404 10.1567 20.3404C4.81546 20.3404 0.5 16.0763 0.5 10.8286C0.5 5.58101 4.81546 1.31689 10.1567 1.31689C15.498 1.31689 19.8135 5.58101 19.8135 10.8286C19.8135 12.9262 19.1232 14.8636 17.9584 16.4371ZM10.1567 18.2598C14.3081 18.2598 17.6883 14.9381 17.6883 10.8286C17.6883 6.71913 14.3081 3.39743 10.1567 3.39743C6.00538 3.39743 2.62515 6.71913 2.62515 10.8286C2.62515 14.9381 6.00538 18.2598 10.1567 18.2598Z" fill="#1B1426" stroke="#F9AA01"/>
</svg>
