<svg width="20" height="20" viewBox="0 0 20 20" fill="none" xmlns="http://www.w3.org/2000/svg">
<path d="M18.5714 0H1.42411C0.638393 0 0 0.647322 0 1.44196V18.558C0 19.3527 0.638393 20 1.42411 20H18.5714C19.3571 20 20 19.3527 20 18.558V1.44196C20 0.647322 19.3571 0 18.5714 0ZM6.04464 17.1429H3.08036V7.59821H6.04911V17.1429H6.04464ZM4.5625 6.29464C3.61161 6.29464 2.84375 5.52232 2.84375 4.57589C2.84375 3.62946 3.61161 2.85714 4.5625 2.85714C5.50893 2.85714 6.28125 3.62946 6.28125 4.57589C6.28125 5.52679 5.51339 6.29464 4.5625 6.29464ZM17.1562 17.1429H14.192V12.5C14.192 11.3929 14.1696 9.96875 12.6518 9.96875C11.1071 9.96875 10.8705 11.1741 10.8705 12.4196V17.1429H7.90625V7.59821H10.75V8.90179H10.7902C11.1875 8.15179 12.1563 7.36161 13.5982 7.36161C16.5982 7.36161 17.1562 9.33929 17.1562 11.9107V17.1429Z" fill="white"/>
</svg>
