<svg width="20" height="20" viewBox="0 0 20 20" fill="none" xmlns="http://www.w3.org/2000/svg">
<path d="M14.7143 5C14.7143 7.08818 12.7336 9 10 9C7.26643 9 5.28571 7.08818 5.28571 5C5.28571 2.91182 7.26643 1 10 1C12.7336 1 14.7143 2.91182 14.7143 5ZM1 18.8398C1 15.6657 3.98518 12.875 7.95982 12.875H12.0402C16.0148 12.875 19 15.6657 19 18.8398C19 18.843 18.9998 18.8473 18.9955 18.8561C18.9906 18.8663 18.9786 18.8852 18.9531 18.9076C18.9006 18.9535 18.805 19 18.6741 19H1.32589C1.19503 19 1.09935 18.9535 1.0469 18.9076C1.02137 18.8852 1.00942 18.8663 1.00451 18.8561C1.00024 18.8473 1 18.843 1 18.8398Z" stroke="#FDFDFD" stroke-width="2" stroke-miterlimit="3.86874"/>
</svg>
