<svg width="40" height="41" viewBox="0 0 40 41" fill="none" xmlns="http://www.w3.org/2000/svg">
<rect width="40" height="40.0771" rx="8" fill="#F9AA01"/>
<path d="M21.9708 7.53787C21.1573 6.83894 19.8362 6.83894 19.0227 7.53787L8.61011 16.4841C7.79663 17.1831 7.79663 18.3181 8.61011 19.0171C9.4236 19.716 10.7447 19.716 11.5582 19.0171L18.4175 13.1181V30.2726C18.4175 31.2623 19.3481 32.0618 20.5 32.0618C21.6519 32.0618 22.5825 31.2623 22.5825 30.2726V13.1181L29.4418 19.0115C30.2553 19.7104 31.5764 19.7104 32.3899 19.0115C33.2034 18.3125 33.2034 17.1775 32.3899 16.4785L21.9773 7.53228L21.9708 7.53787Z" fill="#1B1426"/>
</svg>
